<svg width="200" height="24" viewBox="0 0 200 24" fill="none" xmlns="http://www.w3.org/2000/svg">
<g clip-path="url(#clip0_7_281)">
<path d="M5.38833 6.59131V23.75H0V6.59131H5.38833Z" fill="black"/>
<path d="M5.38833 0V5.89172L0 0H5.38833Z" fill="#0071CF"/>
<path d="M38.6607 8.19646C39.9523 9.52363 40.5954 11.3617 40.5954 13.7161V24.0003H35.2403V14.4436C35.2403 13.3108 34.941 12.4278 34.3423 11.8115C33.7435 11.1895 32.9176 10.8786 31.8698 10.8786C30.8221 10.8786 29.9961 11.1895 29.3974 11.8115C28.7987 12.4334 28.4994 13.3108 28.4994 14.4436V24.0003H23.1443V14.4436C23.1443 13.3108 22.8449 12.4278 22.2462 11.8115C21.6475 11.1895 20.8215 10.8786 19.7738 10.8786C18.7261 10.8786 17.9001 11.1895 17.3014 11.8115C16.7027 12.4334 16.4033 13.3108 16.4033 14.4436V24.0003H11.015V6.3973H16.4033V8.60739C16.9466 7.86884 17.6617 7.28578 18.5431 6.8582C19.4246 6.42506 20.4224 6.21405 21.5367 6.21405C22.8616 6.21405 24.0423 6.49725 25.079 7.06366C26.1156 7.63006 26.9305 8.4408 27.5181 9.49031C28.1279 8.52409 28.9539 7.73557 30.0072 7.12474C31.0549 6.51391 32.2024 6.2085 33.4387 6.2085C35.6228 6.2085 37.3579 6.8693 38.6496 8.19646H38.6607Z" fill="black"/>
<path d="M50.801 8.19616C52.0927 9.52332 52.7357 11.3614 52.7357 13.7158V24H47.3807V14.4433C47.3807 13.3105 47.0813 12.4275 46.4826 11.8112C45.8839 11.1892 45.0579 10.8782 44.0102 10.8782C42.9625 10.8782 42.1365 11.1892 41.5378 11.8112C40.9391 12.4331 40.6397 13.3105 40.6397 14.4433V24H35.2846V14.4433C35.2846 13.3105 34.9853 12.4275 34.3866 11.8112C33.7879 11.1892 32.9619 10.8782 31.9142 10.8782C30.8664 10.8782 30.0404 11.1892 29.4417 11.8112C28.843 12.4331 28.5437 13.3105 28.5437 14.4433V24H23.1554V6.39699L27.3962 11.8L28.5437 8.60153C29.087 7.86298 29.8021 7.27992 30.6835 6.85234C31.5649 6.4192 32.5628 6.20819 33.677 6.20819C35.0019 6.20819 36.1827 6.49139 37.2193 7.0578C38.256 7.6242 39.0709 8.43494 39.6585 9.48445C40.2683 8.51823 41.0943 7.72971 42.1475 7.11888C43.1953 6.50805 44.3428 6.20264 45.579 6.20264C47.7632 6.20264 49.4983 6.86344 50.7899 8.19061L50.801 8.19616Z" fill="black"/>
<path d="M59.9645 22.895C58.5897 22.1565 57.5087 21.107 56.7215 19.7409C55.9344 18.3749 55.5408 16.7756 55.5408 14.9431C55.5408 13.1107 55.9399 11.5392 56.7382 10.162C57.5364 8.78489 58.6285 7.72982 60.0144 6.99127C61.4003 6.25273 62.9525 5.88623 64.6765 5.88623C66.4006 5.88623 67.9528 6.25273 69.3387 6.99127C70.7245 7.72982 71.8166 8.78489 72.6149 10.162C73.4132 11.5392 73.8123 13.1329 73.8123 14.9431C73.8123 16.7534 73.4076 18.3471 72.5983 19.7243C71.7889 21.1014 70.6857 22.1565 69.2888 22.895C67.8918 23.6336 66.3341 24.0001 64.61 24.0001C62.886 24.0001 61.3393 23.6336 59.9645 22.895ZM67.2377 18.1972C67.9639 17.442 68.3242 16.3592 68.3242 14.9487C68.3242 13.5382 67.9749 12.4554 67.2709 11.7002C66.5669 10.945 65.7021 10.5674 64.671 10.5674C63.6399 10.5674 62.7474 10.9394 62.0544 11.6891C61.3615 12.4332 61.0178 13.5216 61.0178 14.9543C61.0178 16.3869 61.3615 17.4475 62.0433 18.2027C62.7252 18.958 63.5789 19.3356 64.61 19.3356C65.6411 19.3356 66.517 18.958 67.2377 18.2027V18.1972Z" fill="black"/>
<path d="M83.7907 6.79138C84.7331 6.23608 85.7864 5.95288 86.9394 5.95288V11.6613H85.4593C84.1177 11.6613 83.1088 11.9501 82.4381 12.5276C81.7673 13.1051 81.4291 14.1213 81.4291 15.5706V23.7391H76.0408V6.14723H81.4291V9.07921C82.0611 8.11299 82.8483 7.35223 83.7907 6.79138Z" fill="black"/>
<path d="M98.6806 19.1746V23.7502H95.9421C93.9908 23.7502 92.4663 23.2727 91.3742 22.312C90.2822 21.3569 89.7389 19.7965 89.7389 17.6253V10.623H87.5991V5.89182L95.1272 1.59937V6.14171H98.6529V10.623H95.1272V17.6919C95.1272 18.2194 95.2547 18.5971 95.5042 18.8247C95.7536 19.0579 96.175 19.169 96.7626 19.169H98.6862L98.6806 19.1746Z" fill="black"/>
<path d="M100.998 10.1507C101.68 8.78471 102.611 7.73519 103.786 6.99665C104.961 6.2581 106.275 5.8916 107.722 5.8916C108.958 5.8916 110.045 6.14149 110.982 6.64681C111.913 7.15213 112.634 7.81293 113.138 8.63478V6.14149H118.521V23.7444H113.138V21.2512C112.612 22.073 111.885 22.7338 110.949 23.2391C110.012 23.7444 108.925 23.9943 107.689 23.9943C106.259 23.9943 104.961 23.6223 103.786 22.8726C102.611 22.1285 101.68 21.0624 100.998 19.6852C100.316 18.3081 99.9723 16.7144 99.9723 14.9041C99.9723 13.0938 100.31 11.5057 100.998 10.1396V10.1507ZM112.018 11.7611C111.27 10.9837 110.366 10.595 109.297 10.595C108.227 10.595 107.317 10.9781 106.575 11.7444C105.826 12.5108 105.455 13.5714 105.455 14.9152C105.455 16.259 105.826 17.3307 106.575 18.1193C107.317 18.9078 108.227 19.3021 109.297 19.3021C110.366 19.3021 111.276 18.9133 112.018 18.1359C112.761 17.3585 113.138 16.2979 113.138 14.9485C113.138 13.5991 112.767 12.5385 112.018 11.7611Z" fill="black"/>
<path d="M127.186 0.405273V23.75H121.797V0.405273H127.186Z" fill="black"/>
<path d="M140.157 23.1782C138.877 22.6507 137.851 21.8732 137.086 20.8459C136.321 19.8186 135.917 18.5748 135.872 17.1254H141.604C141.687 17.9473 141.97 18.5692 142.452 19.0024C142.935 19.4355 143.567 19.6465 144.343 19.6465C145.119 19.6465 145.768 19.4632 146.233 19.0968C146.693 18.7303 146.926 18.2194 146.926 17.5641C146.926 17.0199 146.743 16.5646 146.377 16.2092C146.011 15.8538 145.557 15.5595 145.025 15.3263C144.487 15.093 143.727 14.8321 142.741 14.5378C141.31 14.0935 140.146 13.6548 139.243 13.2106C138.339 12.7663 137.563 12.1167 136.914 11.2559C136.266 10.3952 135.939 9.26797 135.939 7.87972C135.939 5.81957 136.682 4.20365 138.173 3.03752C139.664 1.87139 141.604 1.28833 143.999 1.28833C146.394 1.28833 148.395 1.87139 149.886 3.03752C151.378 4.20365 152.176 5.83067 152.281 7.91304H146.455C146.411 7.19671 146.15 6.63585 145.668 6.22493C145.185 5.81401 144.565 5.60855 143.811 5.60855C143.162 5.60855 142.635 5.78069 142.236 6.13053C141.837 6.47482 141.638 6.98014 141.638 7.62984C141.638 8.34617 141.97 8.90147 142.646 9.30129C143.317 9.7011 144.365 10.1342 145.795 10.5951C147.225 11.0782 148.384 11.5391 149.277 11.9834C150.169 12.4276 150.94 13.0662 151.594 13.9103C152.242 14.7488 152.569 15.8371 152.569 17.1588C152.569 18.4804 152.248 19.5688 151.61 20.5961C150.967 21.6289 150.042 22.4452 148.822 23.056C147.602 23.6669 146.167 23.9723 144.509 23.9723C142.852 23.9723 141.444 23.7113 140.163 23.1837L140.157 23.1782Z" fill="black"/>
<path d="M160.63 5.92496V10.4062H167.842V14.571H160.63V19.4298H168.784V23.75H155.241V1.60474H168.784V5.92496H160.63Z" fill="black"/>
<path d="M174.095 19.7797C174.638 19.974 175.231 19.9463 175.753 19.6964C174.832 18.5469 174.067 17.2808 173.463 15.937C172.36 17.0587 172.515 19.18 174.095 19.7741V19.7797Z" fill="#0071CF"/>
<path d="M194.201 20.7404C194.49 20.4794 194.761 20.2073 195.033 19.9186L192.306 17.4308C188.625 21.6511 183.303 21.2513 179.943 16.8755C177.964 14.41 175.17 8.74041 178.718 6.54143C179.733 5.94726 180.975 5.88618 182.044 6.37484L185.337 3.4151C180.703 -0.738535 173.13 2.73208 173.197 8.91811C173.463 19.963 184.689 28.7256 194.201 20.7293V20.7404Z" fill="#0071CF"/>
<path d="M192.217 1.59924C190.415 1.59924 188.675 2.2656 187.333 3.4706L178.646 11.2781C179.012 12.7774 179.661 14.1934 180.57 15.4428L189.434 7.31326C190.997 5.92502 193.381 6.06939 194.767 7.63533C195.532 8.5016 195.865 9.67328 195.659 10.8116L198.736 13.5826C199.119 12.3387 199.374 11.056 199.484 9.75657C199.917 5.7029 196.99 2.07124 192.949 1.63256C192.705 1.60479 192.461 1.59369 192.217 1.58813V1.59924Z" fill="#0071CF"/>
<path d="M190.598 8.12958C190.648 8.03518 187.427 10.9894 187.377 11.0449L192.716 15.9482L196.441 19.3633C197.311 20.1629 198.658 20.1074 199.457 19.2355C199.523 19.1634 199.584 19.0856 199.64 19.0079C200.272 17.9584 200.05 16.6034 199.113 15.8094L190.598 8.12402V8.12958Z" fill="#0071CF"/>
</g>
<defs>
<clipPath id="clip0_7_281">
<rect width="200" height="24" fill="white"/>
</clipPath>
</defs>
</svg>
